# xmcd
# 
# Track frame offsets:
#     150
#     48288
#     89463
#     121979
#     157800
#     189724
#     234468
#     278415
# 
# Disc length: 4437
# 
# Revision: 6
# Processed by: cddbd v1.5.2PL0 Copyright (c) Steve Scherf et al.
# Submitted via: BonkEnc v1.0.8
# 
DISCID=5d115308
DTITLE=John Coltrane - Blue Train 1957
DYEAR=1957
DGENRE=Jazz
TTITLE0=Blue Train
TTITLE1=Moment's Notice
TTITLE2=Locomotion
TTITLE3=I'm Old Fashioned
TTITLE4=Lazy Bird
TTITLE5=Blue Train (Alternate Take)
TTITLE6=Lazy Bird (Alternate Take)
TTITLE7=Data Track
EXTD=YEAR: 1957
EXTT0=
EXTT1=
EXTT2=
EXTT3=
EXTT4=
EXTT5=
EXTT6=
EXTT7=
PLAYORDER=
